<?xml version="1.0" encoding="UTF-8" standalone="no"?>
<svg
   id="Layer_1"
   viewBox="0 0 1183.48 626.66"
   version="1.1"
   sodipodi:docname="fe27b8d1-7849-4719-aee2-b861f761f30b.svg"
   xmlns:inkscape="http://www.inkscape.org/namespaces/inkscape"
   xmlns:sodipodi="http://sodipodi.sourceforge.net/DTD/sodipodi-0.dtd"
   xmlns="http://www.w3.org/2000/svg"
   xmlns:svg="http://www.w3.org/2000/svg">
  <defs
     id="defs6" />
  <sodipodi:namedview
     id="namedview6"
     pagecolor="#ffffff"
     bordercolor="#000000"
     borderopacity="0.25"
     inkscape:showpageshadow="2"
     inkscape:pageopacity="0.0"
     inkscape:pagecheckerboard="0"
     inkscape:deskcolor="#d1d1d1" />
  <path
     d="M246.79,357.42v135.49h-77.5v-126.49c0-25.95-9.12-39.18-29.34-39.18-23.45,0-38.07,16.64-38.07,45.52v120.15H24.38V186.66h77.5v96.06c16.57-13.34,37.64-21.46,60.06-21.46,51.65,0,84.85,37.84,84.85,96.16Z"
     fill="#1d1d1b"
     id="path1" />
  <path
     d="M293.13,267.91h77.5v225h-77.5v-225ZM293.73,173.98h76.31v65.77h-76.31v-65.77Z"
     fill="#1d1d1b"
     id="path2" />
  <path
     d="M652.08,267.91v200c0,70.71-46.29,114.51-120.61,114.51-63.85,0-108.55-32.2-118.9-85.52h74.79c5.37,15.04,24.57,23.14,43.4,23.14,25.97,0,46.84-16.5,46.84-43.26v-6.72c-16.91,10.73-37,16.89-58.71,16.89-64.51,0-112.44-47.99-112.44-113.09s47.93-113.16,112.44-113.16c27.23,0,51.9,9.77,70.97,26.07l9.83-18.88h52.4ZM531.76,423.16c27.83,0,47.85-20.62,47.85-49.28s-19.96-49.04-47.85-49.04-48.03,20.62-48.03,49.04,19.96,49.28,48.03,49.28h0Z"
     fill="#1d1d1b"
     id="path3" />
  <path
     d="M923.46,357.42v135.49h-77.5v-126.49c0-25.95-9.12-39.18-29.34-39.18-23.45,0-38.07,16.64-38.07,45.52v120.15h-77.5V186.66h77.5v96.06c16.57-13.34,37.64-21.46,60.06-21.46,51.66,0,84.85,37.84,84.85,96.16Z"
     fill="#1d1d1b"
     id="path4" />
  <path
     d="M1010.24,358.46c-35.75,0-57.48-18.88-57.9-47.3h43.49c0,9.59,6.68,14.01,15.25,14.01,6.61,0,12.87-3.37,12.87-10.15,0-7.57-9.93-9.72-22.53-11.81-20.34-3.3-47.3-9.43-47.3-41.25,0-26.29,22.41-43.27,56.02-43.27s55.05,17.77,55.57,44.35h-42.31c0-8.38-5.63-12.27-13.82-12.27-7.24,0-12.11,3.59-12.11,9.67,0,7.46,10.03,9.2,22.49,11.42,20.72,3.68,48.27,7.99,48.27,41.25,0,27.41-23.14,45.35-58,45.35h0Z"
     fill="#1d1d1b"
     id="path5" />
  <path
     d="M1176.6,314.59v39.57h-31.09c-29.01,0-46.64-17.73-46.64-46.88v-49.5h-24.01v-10.56l58.77-62.59h9.28v38.35h32.96v34.8h-31.82v41.75c0,9.39,5.67,15.06,15.2,15.06h17.34Z"
     fill="#1d1d1b"
     id="path6" />
</svg>
