<?xml version="1.0" encoding="UTF-8"?>
<svg version="1.1" xmlns="http://www.w3.org/2000/svg" width="2000" height="2000">
<path d="M0 0 C0.63808594 -1.14339844 1.27617188 -2.28679688 1.93359375 -3.46484375 C2.76814187 -4.95577803 3.60278204 -6.44666079 4.4375 -7.9375 C4.85837891 -8.69224609 5.27925781 -9.44699219 5.71289062 -10.22460938 C6.11572266 -10.94326172 6.51855469 -11.66191406 6.93359375 -12.40234375 C7.30540771 -13.06741943 7.67722168 -13.73249512 8.06030273 -14.41772461 C9 -16 9 -16 10 -17 C11.65738443 -17.09346915 13.31874644 -17.11744977 14.97875977 -17.11352539 C16.03978409 -17.11344986 17.10080841 -17.11337433 18.19398499 -17.11329651 C19.348134 -17.10813522 20.50228302 -17.10297394 21.69140625 -17.09765625 C22.86638168 -17.0962413 24.04135712 -17.09482635 25.25193787 -17.09336853 C29.02215064 -17.08774992 32.79230504 -17.07519426 36.5625 -17.0625 C39.11132727 -17.0574874 41.66015547 -17.05292408 44.20898438 -17.04882812 C50.47267633 -17.03777444 56.73633399 -17.02101821 63 -17 C63.07021894 10.99966528 63.12305119 38.99931727 63.15543652 66.999053 C63.17087622 80.00110768 63.19191018 93.0031075 63.22631836 106.00512695 C63.25630958 117.34353313 63.27559603 128.68189957 63.28226548 140.02034432 C63.2861613 146.01863755 63.29525623 152.01681713 63.31719017 158.01507378 C63.33770916 163.67277648 63.34380293 169.3303198 63.33932304 174.98805618 C63.3401414 177.05306047 63.34601443 179.11807067 63.35761642 181.18304253 C63.43976172 196.57188519 62.44395023 211.47064144 57.3125 226.125 C57.05976318 226.86161865 56.80702637 227.5982373 56.54663086 228.35717773 C52.52047307 239.61759199 46.85675428 249.94874989 39 259 C38.34644531 259.79664063 37.69289063 260.59328125 37.01953125 261.4140625 C17.62717664 284.23275299 -11.29679217 294.72538789 -40.40405273 297.80151367 C-77.64451184 300.64892205 -115.60023413 294.45577443 -145 270 C-161.88684535 255.31858632 -171.95600021 236.74854029 -177 215 C-177 214.01 -177 213.02 -177 212 C-167.21223771 211.76793656 -157.42513316 211.59043919 -147.63517666 211.48187828 C-143.08872012 211.42976266 -138.54414998 211.35912979 -133.9987793 211.24560547 C-129.60899008 211.13665759 -125.22101032 211.07710147 -120.82997322 211.05122757 C-119.15802582 211.03279975 -117.48617373 210.99680902 -115.81500053 210.94269943 C-102.6679886 210.53409269 -102.6679886 210.53409269 -98.52615356 214.1741333 C-96.68774414 216.85009766 -96.68774414 216.85009766 -95.34388733 219.51724243 C-91.6136717 226.40860965 -82.17031516 229.84374695 -75 232 C-60.60268283 235.47262539 -45.39425425 234.74969524 -32.28125 227.49609375 C-23.19440687 221.59785672 -16.75950493 213.55267967 -14 203 C-13.06130727 197.69967858 -12.50506559 192.35635351 -12 187 C-12.969375 187.51949219 -13.93875 188.03898437 -14.9375 188.57421875 C-43.00630189 203.29779325 -74.55243073 207.07746666 -105.21582031 198.3034668 C-118.50166543 194.16002037 -131.31421025 187.97121408 -142 179 C-142.84691406 178.29101562 -143.69382812 177.58203125 -144.56640625 176.8515625 C-166.90446477 157.412336 -179.54027139 132.35955603 -183 103 C-185.31724145 68.18554105 -177.03783515 36.5900762 -154 10 C-153.34515625 9.24332031 -152.6903125 8.48664062 -152.015625 7.70703125 C-113.05975295 -33.99572921 -43.00670975 -35.18730798 0 0 Z M-92 54 C-102.47765847 66.50692829 -106.13332939 79.86776441 -105 96 C-102.9327699 109.29164352 -97.17676495 120.77986122 -86.35546875 129.01171875 C-74.66239511 136.81255249 -61.974494 139.71403656 -48.0625 137.25 C-35.67250263 134.45411188 -25.55262931 128.61593444 -18.23828125 117.984375 C-10.20427006 105.10968199 -7.88847571 90.70436476 -11.125 75.8125 C-14.86780845 62.63359702 -22.19669967 52.78689769 -34 46 C-53.15678892 35.41518003 -76.11939067 39.50894399 -92 54 Z " fill="#020202" transform="translate(1083,907)"/>
<path d="M0 0 C26.07 0 52.14 0 79 0 C79.33 31.02 79.66 62.04 80 94 C83.63 91.69 87.26 89.38 91 87 C105.6358689 78.62405093 121.43182624 74.58867067 138.25 74.6875 C139.25144043 74.69241455 140.25288086 74.6973291 141.28466797 74.70239258 C163.83595345 75.05606 184.17593114 83.22648036 199.94018555 99.41845703 C224.00658417 125.28585375 224.48744425 160.47603714 224.30418181 193.61092019 C224.28514665 197.64669989 224.28364383 201.68248983 224.28010559 205.7183075 C224.27086255 213.32502145 224.24635629 220.93160266 224.21605712 228.53825873 C224.17592373 238.84232791 224.15999552 249.1464346 224.14255047 259.45056248 C224.11452742 275.63380733 224.05470729 291.81677234 224 308 C197.93 308 171.86 308 145 308 C144.96261719 298.09355469 144.92523437 288.18710938 144.88671875 277.98046875 C144.85643467 271.69594967 144.82540476 265.41144886 144.79101562 259.12695312 C144.73659769 249.15699948 144.68518176 239.18709653 144.65356445 229.21704102 C144.63052019 221.95479871 144.59705094 214.69269024 144.55129844 207.43055421 C144.52745247 203.5887709 144.50866742 199.74711942 144.50238609 195.9052639 C144.49629587 192.28135025 144.47615607 188.65777353 144.44572449 185.03398514 C144.43288325 183.08594445 144.43450338 181.13782479 144.4367218 179.18974304 C144.31498223 167.68696671 142.66859417 156.66859417 134.25 148.25 C126.15774039 142.64766642 118.68275205 142.04777356 109 143 C99.5117786 145.13938241 91.92235676 149.53680733 86.6875 157.8125 C82.3715029 165.60005998 79.90168485 173.64895713 79.84178162 182.57453918 C79.8319928 183.68366669 79.82220398 184.79279419 79.81211853 185.93553162 C79.80636307 187.14250198 79.8006076 188.34947235 79.79467773 189.59301758 C79.78477814 190.87146545 79.77487854 192.14991333 79.76467896 193.46710205 C79.73770488 196.9646085 79.71665487 200.46212833 79.69667697 203.9596808 C79.67477102 207.61789515 79.64740493 211.27606858 79.62062073 214.93424988 C79.57075606 221.85788255 79.5257942 228.78153802 79.48259836 235.70521516 C79.42392791 245.0637669 79.35767457 254.42226476 79.29184818 263.78076839 C79.18837091 278.52047594 79.09501703 293.26022987 79 308 C52.93 308 26.86 308 0 308 C0 206.36 0 104.72 0 0 Z " fill="#030303" transform="translate(1194,808)"/>
<path d="M0 0 C25.74 0 51.48 0 78 0 C78 31.35 78 62.7 78 95 C84.93 90.545 84.93 90.545 92 86 C113.80612403 74.31240031 139.82444487 71.01850822 163.81640625 77.609375 C185.2543929 84.30718384 201.32320576 98.38285717 212 118 C220.56994898 134.90638437 223.16335302 153.06514585 223.11352539 171.76953125 C223.11324296 173.25837706 223.11340235 174.747223 223.1139679 176.23606873 C223.11425368 180.25820632 223.10839245 184.28031383 223.10139394 188.30244446 C223.09512383 192.51315151 223.09455371 196.72385932 223.09336853 200.93457031 C223.09026598 208.89936156 223.08206712 216.864139 223.07201904 224.82892418 C223.05872942 235.59795239 223.0533493 246.3669844 223.04751682 257.13601875 C223.03812648 274.0906895 223.01820038 291.04533112 223 308 C197.26 308 171.52 308 145 308 C144.95101562 298.63367187 144.90203125 289.26734375 144.8515625 279.6171875 C144.81615582 273.66535562 144.7802627 267.71353317 144.7421875 261.76171875 C144.68191069 252.32538044 144.62355755 242.88905974 144.578125 233.45263672 C144.54501836 226.57823268 144.50508656 219.70390661 144.45720994 212.82958901 C144.43212895 209.19509086 144.41029521 205.5606432 144.39665604 201.92608261 C144.38124183 197.85279021 144.35057881 193.779741 144.31884766 189.70654297 C144.31668747 188.52257935 144.31452728 187.33861572 144.31230164 186.11877441 C144.18377172 173.10959855 143.91463367 158.128062 134.26171875 148.21484375 C126.59080575 142.38086778 118.21854675 142.35897523 109 143 C99.07879861 144.61729173 91.83412606 149.89704713 86 158 C79.39612717 169.25189482 78.85789024 180.83945618 78.79467773 193.56640625 C78.78477814 194.80627792 78.77487854 196.0461496 78.76467896 197.32359314 C78.73862284 200.70110556 78.7167072 204.07859602 78.69667697 207.45614624 C78.67470085 210.99422659 78.64736944 214.5322656 78.62062073 218.0703125 C78.57085013 224.7600996 78.52585379 231.44990984 78.48259836 238.1397419 C78.42382328 247.18678862 78.35762111 256.23378084 78.29184818 265.28077888 C78.18851826 279.52048246 78.09506662 293.76023331 78 308 C52.26 308 26.52 308 0 308 C0 206.36 0 104.72 0 0 Z " fill="#010101" transform="translate(518,808)"/>
<path d="M0 0 C26.07 0 52.14 0 79 0 C79 74.58 79 149.16 79 226 C52.93 226 26.86 226 0 226 C0 151.42 0 76.84 0 0 Z " fill="#030303" transform="translate(786,890)"/>
<path d="M0 0 C6.37004333 6.08829141 10.34007378 12.56403512 13.03125 20.94140625 C13.32902344 21.82892578 13.32902344 21.82892578 13.6328125 22.734375 C14.23773019 26.08514457 14.03125 29.53647128 14.03125 32.94140625 C-0.15875 32.94140625 -14.34875 32.94140625 -28.96875 32.94140625 C-30.28875 29.97140625 -31.60875 27.00140625 -32.96875 23.94140625 C-37.16109679 21.14650839 -41.34880004 20.50104115 -46.26953125 21.328125 C-48.18476593 21.80778413 -50.07949919 22.36788368 -51.96875 22.94140625 C-52.21829005 24.37550993 -52.44267642 25.81400697 -52.65625 27.25390625 C-52.78386719 28.05441406 -52.91148438 28.85492187 -53.04296875 29.6796875 C-53.17181243 31.97011832 -53.17181243 31.97011832 -51.8125 33.6171875 C-44.56295811 38.82395593 -33.47390488 39.68434279 -24.90625 41.37890625 C-10.23368364 44.30620554 2.92410914 48.20909281 12.03125 60.94140625 C17.56577239 70.54346919 18.26400471 82.53500358 15.875 93.22265625 C12.22136717 104.99547314 5.87500664 114.01927709 -5.08959961 119.90063477 C-25.2653569 130.07121206 -48.31058929 130.65794911 -69.72265625 124.09765625 C-76.07984106 121.8459511 -80.92191362 118.35738808 -85.96875 113.94140625 C-86.5978125 113.42964844 -87.226875 112.91789063 -87.875 112.390625 C-94.4062357 106.61850222 -98.87814401 97.59016535 -99.96875 88.94140625 C-99.96875 85.97140625 -99.96875 83.00140625 -99.96875 79.94140625 C-85.44875 79.94140625 -70.92875 79.94140625 -55.96875 79.94140625 C-54.64875 82.91140625 -53.32875 85.88140625 -51.96875 88.94140625 C-48.57526241 92.44392156 -45.14316791 92.66526924 -40.4453125 93.01171875 C-36.98130987 92.91337167 -34.78662396 91.91391802 -31.96875 89.94140625 C-29.82440241 87.12061329 -29.82440241 87.12061329 -29.34375 84.06640625 C-29.65069812 81.01313457 -29.65069812 81.01313457 -31.28100586 79.64794922 C-37.76350481 75.36986115 -44.6006294 74.27361203 -52.15625 72.94140625 C-67.60603553 70.17476064 -82.44649213 66.66270424 -92.65234375 53.8984375 C-98.78005414 44.78869593 -100.07880367 33.54144114 -98.40625 22.81640625 C-95.36468278 10.50819757 -89.0047847 1.94838406 -78.46875 -4.74609375 C-55.66757796 -17.49298013 -20.52021371 -17.21170099 0 0 Z " fill="#050505" transform="translate(1545.96875,853.05859375)"/>
<path d="M0 0 C0 12.87 0 25.74 0 39 C10.89 39 21.78 39 33 39 C33 50.55 33 62.1 33 74 C22.44 74 11.88 74 1 74 C1.09716416 79.99605122 1.20003867 85.99144811 1.31738281 91.98706055 C1.35555836 94.02476105 1.39043077 96.06252631 1.421875 98.1003418 C1.46777432 101.03718134 1.52572716 103.97357941 1.5859375 106.91015625 C1.59748871 107.81459976 1.60903992 108.71904327 1.62094116 109.65089417 C1.73945945 114.78277191 2.19239484 119.17412367 4 124 C8.06357497 127.86039622 10.7229093 129.10472728 16.2265625 129.31640625 C17.15549316 129.35451416 18.08442383 129.39262207 19.04150391 129.43188477 C20.22405762 129.47498779 21.40661133 129.51809082 22.625 129.5625 C26.37875 129.706875 30.1325 129.85125 34 130 C34 143.53 34 157.06 34 171 C28.01875 171.061875 22.0375 171.12375 15.875 171.1875 C14.01858887 171.21481201 12.16217773 171.24212402 10.24951172 171.27026367 C-5.49473443 171.40593738 -20.38877552 169.85375808 -32.75 159 C-43.68265327 147.09262824 -45.33187315 132.12971704 -45.1953125 116.67578125 C-45.1924826 115.44836716 -45.18965271 114.22095306 -45.18673706 112.9563446 C-45.1756325 109.07495962 -45.15054606 105.19381405 -45.125 101.3125 C-45.11495763 98.6647169 -45.10583399 96.01693014 -45.09765625 93.36914062 C-45.07743532 86.91259624 -45.03826741 80.45656291 -45 74 C-52.92 74 -60.84 74 -69 74 C-69 63 -69 63 -66 58.8125 C-64.69096045 57.51665641 -63.35652368 56.24604921 -62 55 C-60.66275471 53.67059013 -59.32943282 52.33722247 -58 51 C-57.3296875 50.34 -56.659375 49.68 -55.96875 49 C-54.06013545 47.06108998 -52.27289448 45.06300449 -50.5 43 C-48.10323412 40.21103607 -45.62040609 37.58009215 -43 35 C-40.40017817 32.44009866 -37.93731602 29.8322046 -35.5625 27.0625 C-32.29109667 23.25455671 -28.77163109 19.75435936 -25.19921875 16.23046875 C-23.15018888 14.152323 -21.21854865 12.02149677 -19.3125 9.8125 C-18.74789063 9.16925781 -18.18328125 8.52601563 -17.6015625 7.86328125 C-16.56522113 6.65758654 -15.55737521 5.42654412 -14.5859375 4.16796875 C-9.8367836 -1.49652487 -8.61610545 0 0 0 Z " fill="#030303" transform="translate(1637,806)"/>
<path d="M0 0 C25.41 0 50.82 0 77 0 C77 21.78 77 43.56 77 66 C51.59 66 26.18 66 0 66 C0 44.22 0 22.44 0 0 Z " fill="#010101" transform="translate(787,796)"/>
<path d="M0 0 C0.66 0.33 1.32 0.66 2 1 C-3.94 6.94 -9.88 12.88 -16 19 C-16.66 18.67 -17.32 18.34 -18 18 C-6.66287016 5.33029613 -6.66287016 5.33029613 0 0 Z " fill="#474747" transform="translate(942,905)"/>
</svg>
