<?xml version="1.0" encoding="UTF-8"?><svg id="Layer_1" xmlns="http://www.w3.org/2000/svg" viewBox="0 0 2132.68 2136.27"><path d="M2132.68,0v2136.27H0V0h2132.68ZM804.68,1057.38h60.93l5.38-5.38v-236.57l197.21-157.69,20.53.9,192.58,151.49,1.8,227.6,9.03,19.64h60.93l5.38-5.38v-279.58l-271.24-209.22-12-2.59-276.81,214.5c-2.68,4.73-2.39,9.88-2.86,15.06-5.46,60.52-5.55,183.63,0,244.08.85,9.29,1.34,16.67,9.13,23.13ZM1063.61,814.52c-30.96,5.32-53.26,41.43-48.41,71.73,3.67,22.96,20.1,32.9,31.18,50.82-.7,21.65-31.12,94.21-26.92,109.71,1.03,3.79,4.48,8.14,7.83,10.24,9.11,5.7,82.5,5.97,95.6,3.14,3.65-.79,9.73-3.2,11.58-6.32,10.75-18.17-25.68-93.37-23.34-116.48.82-8.08,21.42-22.33,26.86-37.72,17.62-49.87-22.68-94.01-74.38-85.13ZM1630.85,1150.56c-1.22-9.18,2.88-24.45-1.8-32.22-2-3.32-36.55-22.66-41.17-23.62-7.79-1.62-47.02,17.79-49.52,26.08-2.63,8.73.24,20.49-.67,29.76l47.78-20.69,45.37,20.69ZM490.26,1169.52c-150.57,17.84-106.52,257.41,43.96,215.98,124.18-34.19,92.02-232.09-43.96-215.98ZM1354.88,1322.62h-50.18c-3.18,77.78,122.9,88.59,150.19,26.54,14.78-33.59,2.05-64.28-29.5-80.93-23.4-12.35-81.15-13.46-62.47-48.71,23.79-10.96,33.65-4.95,44.39,16.6l47.91.44c-.56-90.44-146.16-88.13-150.3-4.86-2.89,58.05,54.93,58.49,89.41,74.75,32.63,15.38,5.88,48.81-25.04,35.78-9.42-3.97-13.37-18.95-14.41-19.62ZM304.67,1172.08h-53.77v209.68l5.38,5.38h118.28c10.77-11.39,3.32-31.73,5.38-46.6h-75.27v-168.46ZM672.06,1172.08h-55.56c-.24,7.85,5.92,14.25,9.94,20.52,12.67,19.73,63.93,81.29,68.05,96.83,4.96,18.68-4.1,84.99,2.42,94.35l48.62,3.36v-94.99c0-5.78,58.8-81.06,67.45-93.85,5.34-7.89,13.3-16.89,14.99-26.23h-60.93l-43.07,75.27-51.92-75.27ZM996.44,1172.08h-139.79v209.68l5.38,5.38h132.62c8.58-9.73,8.72-36.47,0-46.6h-84.23v-35.84h69.89c10.77-11.39,3.32-31.73,5.38-46.6h-75.27v-39.43h80.65c10.77-11.39,3.32-31.73,5.38-46.6ZM1145.19,1172.08c-30.72-4.33-70.38,3.2-102.15,0v209.68c12.42,10.98,34.26,3.14,50.18,5.38v-75.27c4.87-.11,6.99-1.25,10.94,2.36,11.41,10.43,34.44,65.33,46.39,71.14,7.15,3.48,57.34,4.07,57.3-3.6l-50.04-71.42c64.14-27.09,57.73-128.36-12.61-138.27ZM1552.02,1172.08h-50.18v155.92c0,2.39,10.22,22.92,12.77,26.65,31.51,45.9,107.83,45.9,139.33,0,2.56-3.73,12.77-24.26,12.77-26.65v-155.92h-50.18v145.17c0,10.62-22.32,24.04-33.98,23.55-10.2-.44-30.54-14.57-30.54-23.55v-145.17ZM1822.63,1172.08c-30.02-4.69-70.86,3.47-102.15,0v215.06c15.92-2.23,37.76,5.6,50.18-5.38v-69.89c5.98-1.29,7.27,1.9,10.7,5.43,9.09,9.34,40.73,69.84,48.44,69.84h51.97c-8.41-28.11-34.2-51.99-50.16-77.08,65.68-21.96,61.97-126.89-8.98-137.98Z" fill="#fff"/><path d="M804.68,1057.38c-7.79-6.46-8.28-13.84-9.13-23.13-5.55-60.45-5.47-183.55,0-244.08.47-5.19.18-10.33,2.86-15.06l276.81-214.5,12,2.59,271.24,209.22v279.58l-5.38,5.38h-60.93l-9.03-19.64-1.8-227.6-192.58-151.49-20.53-.9-197.21,157.69v236.57l-5.38,5.38h-60.93Z"/><path d="M490.26,1169.52c135.97-16.11,168.14,181.79,43.96,215.98-150.48,41.43-194.53-198.14-43.96-215.98ZM486.5,1219.5c-53.37,11.01-51.55,111.93,6.58,120.81,90.95,13.9,93.1-141.36-6.58-120.81Z"/><path d="M1145.19,1172.08c70.34,9.91,76.75,111.17,12.61,138.27l50.04,71.42c.04,7.67-50.15,7.09-57.3,3.6-11.94-5.81-34.98-60.71-46.39-71.14-3.95-3.61-6.07-2.47-10.94-2.36v75.27c-15.92-2.23-37.76,5.6-50.18-5.38v-209.68c31.77,3.2,71.43-4.33,102.15,0ZM1093.22,1268.86c79.94,15.37,78.23-64.41,0-50.18v50.18Z"/><path d="M1822.63,1172.08c70.95,11.09,74.66,116.02,8.98,137.98,15.96,25.09,41.75,48.98,50.16,77.08h-51.97c-7.71,0-39.35-60.51-48.44-69.84-3.43-3.53-4.72-6.72-10.7-5.43v69.89c-12.42,10.98-34.26,3.14-50.18,5.38v-215.06c31.3,3.47,72.14-4.69,102.15,0ZM1770.66,1268.86c79.52,14.41,75.57-63.37,0-50.18v50.18Z"/><path d="M1063.61,814.52c51.7-8.88,91.99,35.26,74.38,85.13-5.44,15.39-26.04,29.63-26.86,37.72-2.34,23.11,34.09,98.31,23.34,116.48-1.85,3.12-7.93,5.53-11.58,6.32-13.09,2.83-86.49,2.56-95.6-3.14-3.35-2.1-6.8-6.45-7.83-10.24-4.2-15.51,26.22-88.07,26.92-109.71-11.08-17.93-27.51-27.86-31.18-50.82-4.85-30.3,17.45-66.42,48.41-71.73Z"/><path d="M996.44,1172.08c-2.06,14.86,5.39,35.2-5.38,46.6h-80.65v39.43h75.27c-2.06,14.86,5.39,35.2-5.38,46.6h-69.89v35.84h84.23c8.72,10.13,8.58,36.86,0,46.6h-132.62l-5.38-5.38v-209.68h139.79Z"/><path d="M1552.02,1172.08v145.17c0,8.98,20.34,23.11,30.54,23.55,11.66.5,33.98-12.93,33.98-23.55v-145.17h50.18v155.92c0,2.39-10.22,22.92-12.77,26.65-31.5,45.9-107.82,45.9-139.33,0-2.56-3.73-12.77-24.26-12.77-26.65v-155.92h50.18Z"/><path d="M1354.88,1322.62c1.05.67,4.99,15.65,14.41,19.62,30.92,13.03,57.67-20.4,25.04-35.78-34.48-16.25-92.3-16.7-89.41-74.75,4.15-83.26,149.74-85.58,150.3,4.86l-47.91-.44c-10.74-21.56-20.6-27.56-44.39-16.6-18.68,35.24,39.06,36.36,62.47,48.71,31.54,16.65,44.27,47.33,29.5,80.93-27.29,62.05-153.37,51.24-150.19-26.54h50.18Z"/><path d="M672.06,1172.08l51.92,75.27,43.07-75.27h60.93c-1.69,9.34-9.65,18.34-14.99,26.23-8.65,12.79-67.45,88.07-67.45,93.85v94.99l-48.62-3.36c-6.52-9.36,2.53-75.68-2.42-94.35-4.12-15.53-55.38-77.09-68.05-96.83-4.02-6.27-10.19-12.67-9.94-20.52h55.56Z"/><path d="M304.67,1172.08v168.46h75.27c-2.06,14.86,5.39,35.2-5.38,46.6h-118.28l-5.38-5.38v-209.68h53.77Z"/><path d="M1630.85,1150.56l-45.37-20.69-47.78,20.69c.91-9.27-1.96-21.03.67-29.76,2.49-8.29,41.73-27.69,49.52-26.08,4.62.96,39.17,20.29,41.17,23.62,4.68,7.77.58,23.03,1.8,32.22Z"/><path d="M486.5,1219.5c99.68-20.56,97.53,134.7,6.58,120.81-58.13-8.88-59.95-109.8-6.58-120.81Z" fill="#fff"/><path d="M1093.22,1268.86v-50.18c78.23-14.23,79.94,65.55,0,50.18Z" fill="#fff"/><path d="M1770.66,1268.86v-50.18c75.57-13.18,79.52,64.59,0,50.18Z" fill="#fff"/></svg>