<?xml version="1.0" encoding="UTF-8" standalone="no"?>
<svg
   id="Layer_2"
   viewBox="0 0 2449.54 873.11"
   version="1.1"
   sodipodi:docname="adcc45a4-c106-4c1c-a98c-9557721f19d1.svg"
   xmlns:inkscape="http://www.inkscape.org/namespaces/inkscape"
   xmlns:sodipodi="http://sodipodi.sourceforge.net/DTD/sodipodi-0.dtd"
   xmlns="http://www.w3.org/2000/svg"
   xmlns:svg="http://www.w3.org/2000/svg">
  <defs
     id="defs19" />
  <sodipodi:namedview
     id="namedview19"
     pagecolor="#ffffff"
     bordercolor="#000000"
     borderopacity="0.25"
     inkscape:showpageshadow="2"
     inkscape:pageopacity="0.0"
     inkscape:pagecheckerboard="0"
     inkscape:deskcolor="#d1d1d1" />
  <g
     id="Logo">
    <path
       id="MM"
       d="M922.03,174.86c-4.13-1.53-8.24-3.13-12.31-4.78-29.62-11.96-58.4-30.27-91.01-32.25-49.15-2.98-96.92,17.63-139.11,40.75-36.91,20.22-71.38,44.36-107.18,66.38-.45.28-.87.57-1.3.88-8.28,6.14-18.51,12.27-28.73,18.41-16.78,12.58-39.85-8.39-27.26-27.26,6-10.01,12.01-20.02,16.19-30.03.4-.95.86-1.89,1.4-2.77,62.32-101.81,87.17-145.62,66.29-181.12-8.39-14.68-23.07-23.07-41.94-23.07-62.83,0-159.11,52.28-288.86,154.76-.37.29-.75.57-1.14.83-18.19,12.2-34.47,26.35-52.61,42.47-1.14,1.01-2.37,1.95-3.73,2.65-14.23,7.23-30.7-8.54-22.77-22.43,18.88-31.46,37.75-60.82,54.53-79.69,14.68-16.78,12.58-41.94-6.29-56.63-16.78-12.58-39.85-8.39-54.53,8.39C114.71,129.83,35.24,301.15,1.54,410.24c-.17.55-.32,1.09-.45,1.65-3.79,16.56,2.5,34.96,14.88,43.21,8.39,6.29,14.68,8.39,23.07,8.39,10.49,0,23.07-6.29,29.36-14.68,50.33-62.92,153.1-159.39,247.47-232.79,58.72-46.14,106.96-79.69,144.71-100.67,13.76-7.87,29.37,6.39,24.35,20.3-.56,1.56-1.45,2.98-2.43,4.32-5.7,7.82-11.4,17.15-17.11,24.88-.42.57-.81,1.15-1.16,1.76-64.65,110.53-95.87,164.87-72.87,204.61,10.49,16.78,27.26,25.17,48.24,25.17,41.94-2.1,94.38-33.56,174.07-83.89,35.27-22.44,70.56-45.07,107.49-64.75,48.67-25.94,93.03-46.96,142.81-8.64,23.01,17.72,27.32,41.62,19.75,67.84-.22.76-.49,1.51-.79,2.24-8.39,20.28-16.08,40.09-22.85,58.87-5.7,14.21-10.99,28.69-14.44,43.02-4.19,16.78,2.1,35.65,14.68,44.04,8.39,6.29,14.68,8.39,23.07,8.39,10.49,0,23.07-6.29,29.36-14.68,50.33-62.92,153.09-159.39,247.47-232.79,58.72-46.14,106.96-79.69,144.71-100.67,13.76-7.87,29.37,6.39,24.35,20.3-.56,1.56-1.45,2.98-2.43,4.32-5.7,7.82-11.4,17.15-17.11,24.88-.42.57-.81,1.15-1.16,1.76-64.65,110.53-95.87,164.87-72.86,204.61,10.49,16.78,27.26,25.17,48.24,25.17,41.94-2.1,94.38-33.56,174.07-83.89,69.21-44.04,161.49-102.76,203.43-96.47,14.68,2.1,25.17,8.39,41.94,20.97,31.46,23.07,75.5,54.53,184.56,54.53,115.35-2.1,289.42-39.85,532.69-117.44,20.97-6.29,33.56-27.26,27.26-48.24-4.19-20.97-27.26-33.56-48.24-27.26-524.31,167.78-599.8,111.15-650.14,75.5-18.88-14.68-41.94-29.36-75.5-35.65-71.12-10.46-165.2,50.02-257.25,106.53-.47.29-.91.59-1.36.92-8.28,6.13-18.49,12.26-28.71,18.39-16.78,12.58-39.85-8.39-27.26-27.26,6-10.01,12.01-20.02,16.19-30.03.4-.96.86-1.89,1.4-2.77,62.32-101.81,87.18-145.62,66.29-181.12C1434.96,8.39,1420.28,0,1401.4,0c-31.64,0-62.82,11.74-91.14,24.82-21.88,10.1-43,21.77-63.54,34.35-40.62,24.89-79.11,53.04-117.25,81.53-17.32,12.93-35.28,31.07-55.75,38.1-21.62,7.44-42.85,13.47-65.94,13.54-29.49.09-58.24-7.28-85.75-17.48Z"
       fill="#1d1d1b" />
    <circle
       cx="1698.12"
       cy="337.41"
       r="25.83"
       fill="#1d1d1b"
       id="circle1" />
    <circle
       cx="1823.35"
       cy="364.02"
       r="36.79"
       fill="#1d1d1b"
       id="circle2" />
    <circle
       cx="1975.59"
       cy="362.85"
       r="43.44"
       fill="#1d1d1b"
       id="circle3" />
    <circle
       cx="2135.26"
       cy="333.1"
       r="35.61"
       fill="#1d1d1b"
       id="circle4" />
    <circle
       cx="2273.01"
       cy="303.36"
       r="34.05"
       fill="#1d1d1b"
       id="circle5" />
    <circle
       cx="2397.86"
       cy="257.57"
       r="25.83"
       fill="#1d1d1b"
       id="circle6" />
    <path
       d="M180.79,644.33h10.98v160.12h-9.84v-144.79l-69.31,95.84h-2.52l-69.31-95.62v144.57h-10.06v-160.12h10.98l69.54,96.3,69.54-96.3Z"
       fill="#1d1d1b"
       stroke="#fff"
       stroke-miterlimit="10"
       id="path6" />
    <path
       d="M365.84,804.45l-18.07-40.26h-97.45l-18.07,40.26h-10.98l71.83-160.12h11.89l71.83,160.12h-10.98ZM299.05,655.08l-44.6,99.27h89.21l-44.6-99.27Z"
       fill="#1d1d1b"
       stroke="#fff"
       stroke-miterlimit="10"
       id="path7" />
    <path
       d="M418.45,798.84c-11.74-5.41-20.89-12.62-27.45-21.62l6.86-6.86c5.18,7.93,13.19,14.41,24.02,19.44,10.83,5.03,22.11,7.55,33.85,7.55,16.16,0,28.94-3.01,38.31-9.04,9.38-6.02,14.07-14.22,14.07-24.59,0-6.55-1.64-11.97-4.92-16.24-3.28-4.27-8.77-7.93-16.47-10.98-7.7-3.05-18.72-5.95-33.05-8.69-14.64-2.9-26.19-6.25-34.65-10.06-8.46-3.81-14.6-8.46-18.41-13.95-3.81-5.49-5.72-12.35-5.72-20.59s2.48-15.52,7.43-21.85c4.95-6.33,11.97-11.21,21.04-14.64,9.07-3.43,19.56-5.15,31.45-5.15s22.26,1.94,32.02,5.83c9.76,3.89,17.99,9.57,24.7,17.04l-6.4,7.09c-5.8-6.55-13.08-11.63-21.85-15.21-8.77-3.58-18.34-5.38-28.71-5.38-15.1,0-27.18,2.94-36.26,8.81-9.07,5.87-13.61,13.69-13.61,23.45,0,6.4,1.6,11.71,4.8,15.9,3.2,4.2,8.46,7.78,15.78,10.75,7.32,2.97,17.46,5.76,30.42,8.35,16.01,3.2,28.48,6.71,37.4,10.52,8.92,3.81,15.33,8.46,19.21,13.95,3.89,5.49,5.83,12.43,5.83,20.82,0,13.42-5.6,24.02-16.81,31.8s-26.42,11.67-45.63,11.67c-13.12,0-25.54-2.71-37.29-8.12Z"
       fill="#1d1d1b"
       stroke="#fff"
       stroke-miterlimit="10"
       id="path8" />
    <path
       d="M568.28,798.84c-11.74-5.41-20.89-12.62-27.45-21.62l6.86-6.86c5.18,7.93,13.19,14.41,24.02,19.44,10.83,5.03,22.11,7.55,33.85,7.55,16.16,0,28.94-3.01,38.31-9.04,9.38-6.02,14.07-14.22,14.07-24.59,0-6.55-1.64-11.97-4.92-16.24-3.28-4.27-8.77-7.93-16.47-10.98-7.7-3.05-18.72-5.95-33.05-8.69-14.64-2.9-26.19-6.25-34.65-10.06-8.46-3.81-14.6-8.46-18.41-13.95-3.81-5.49-5.72-12.35-5.72-20.59s2.48-15.52,7.43-21.85c4.95-6.33,11.97-11.21,21.04-14.64,9.07-3.43,19.56-5.15,31.45-5.15s22.26,1.94,32.02,5.83c9.76,3.89,17.99,9.57,24.7,17.04l-6.4,7.09c-5.8-6.55-13.08-11.63-21.85-15.21-8.77-3.58-18.34-5.38-28.71-5.38-15.1,0-27.18,2.94-36.26,8.81-9.07,5.87-13.61,13.69-13.61,23.45,0,6.4,1.6,11.71,4.8,15.9,3.2,4.2,8.46,7.78,15.78,10.75,7.32,2.97,17.46,5.76,30.42,8.35,16.01,3.2,28.48,6.71,37.4,10.52,8.92,3.81,15.33,8.46,19.21,13.95,3.89,5.49,5.83,12.43,5.83,20.82,0,13.42-5.6,24.02-16.81,31.8s-26.42,11.67-45.63,11.67c-13.12,0-25.54-2.71-37.29-8.12Z"
       fill="#1d1d1b"
       stroke="#fff"
       stroke-miterlimit="10"
       id="path9" />
    <path
       d="M826.53,804.45l-18.07-40.26h-97.45l-18.07,40.26h-10.98l71.83-160.12h11.89l71.83,160.12h-10.98ZM759.74,655.08l-44.6,99.27h89.21l-44.6-99.27Z"
       fill="#1d1d1b"
       stroke="#fff"
       stroke-miterlimit="10"
       id="path10" />
    <path
       d="M991.91,722.1v59.7c-8.23,8.23-17.46,14.49-27.68,18.76-10.22,4.27-21.12,6.41-32.71,6.41-16.01,0-30.23-3.47-42.66-10.41-12.43-6.94-22.11-16.66-29.05-29.17-6.94-12.5-10.41-26.84-10.41-43s3.47-30.5,10.41-43c6.94-12.5,16.66-22.22,29.17-29.16,12.5-6.94,26.84-10.41,43-10.41,21.96,0,41.02,7.93,57.19,23.79l-6.63,7.09c-6.86-6.86-14.6-12.12-23.22-15.78-8.62-3.66-17.73-5.49-27.33-5.49-14.18,0-26.76,3.05-37.74,9.15-10.98,6.1-19.52,14.68-25.62,25.73-6.1,11.06-9.15,23.75-9.15,38.09s3.05,26.8,9.15,37.86c6.1,11.06,14.6,19.67,25.5,25.85,10.9,6.18,23.37,9.26,37.4,9.26,9.61,0,18.87-1.75,27.79-5.26,8.92-3.51,16.51-8.38,22.76-14.64v-45.75h-57.64v-9.61h67.48Z"
       fill="#1d1d1b"
       stroke="#fff"
       stroke-miterlimit="10"
       id="path11" />
    <path
       d="M1040.18,794.84h102.71v9.61h-112.77v-160.12h109.8v9.61h-99.73v64.73h94.93v9.61h-94.93v66.56Z"
       fill="#1d1d1b"
       stroke="#fff"
       stroke-miterlimit="10"
       id="path12" />
    <path
       d="M1355.61,737.42c5.34,6.86,8.01,14.95,8.01,24.25,0,13.27-4.73,23.71-14.18,31.34-9.46,7.63-22.5,11.44-39.12,11.44h-69.77v-160.12h69.77c14.33,0,25.85,3.77,34.54,11.32,8.69,7.55,13.04,17.58,13.04,30.08,0,8.54-2.21,16.17-6.63,22.88-4.42,6.71-10.37,11.36-17.84,13.95,9.45,3.05,16.85,8.01,22.19,14.87ZM1337.89,662.63c-6.79-5.79-15.98-8.69-27.56-8.69h-59.7v64.05h59.7c11.89,0,21.16-2.82,27.79-8.46,6.63-5.64,9.95-13.42,9.95-23.33s-3.4-17.76-10.18-23.56ZM1342.23,785.92c7.55-5.95,11.32-14.18,11.32-24.7s-3.85-18.56-11.55-24.59c-7.7-6.02-18.11-9.04-31.22-9.04h-60.16v67.25h60.16c13.42,0,23.9-2.97,31.45-8.92Z"
       fill="#1d1d1b"
       stroke="#fff"
       stroke-miterlimit="10"
       id="path13" />
    <path
       d="M1511.16,644.33l-63.13,96.3v63.82h-10.07v-63.82l-62.9-96.3h11.89l56.04,86.47,56.04-86.47h12.12Z"
       fill="#1d1d1b"
       stroke="#fff"
       stroke-miterlimit="10"
       id="path14" />
    <path
       d="M1744.48,644.33h10.98v160.12h-9.84v-144.79l-69.31,95.84h-2.52l-69.31-95.62v144.57h-10.06v-160.12h10.98l69.54,96.3,69.54-96.3Z"
       fill="#1d1d1b"
       stroke="#fff"
       stroke-miterlimit="10"
       id="path15" />
    <path
       d="M1929.53,804.45l-18.07-40.26h-97.45l-18.07,40.26h-10.98l71.83-160.12h11.89l71.83,160.12h-10.98ZM1862.74,655.08l-44.61,99.27h89.21l-44.61-99.27Z"
       fill="#1d1d1b"
       stroke="#fff"
       stroke-miterlimit="10"
       id="path16" />
    <path
       d="M2094.91,722.1v59.7c-8.24,8.23-17.46,14.49-27.68,18.76-10.22,4.27-21.12,6.41-32.71,6.41-16.01,0-30.23-3.47-42.66-10.41-12.43-6.94-22.11-16.66-29.05-29.17-6.94-12.5-10.41-26.84-10.41-43s3.47-30.5,10.41-43c6.94-12.5,16.66-22.22,29.16-29.16,12.5-6.94,26.84-10.41,43-10.41,21.96,0,41.02,7.93,57.19,23.79l-6.63,7.09c-6.86-6.86-14.6-12.12-23.22-15.78-8.62-3.66-17.73-5.49-27.33-5.49-14.18,0-26.76,3.05-37.74,9.15-10.98,6.1-19.52,14.68-25.62,25.73-6.1,11.06-9.15,23.75-9.15,38.09s3.05,26.8,9.15,37.86c6.1,11.06,14.6,19.67,25.5,25.85,10.9,6.18,23.37,9.26,37.4,9.26,9.61,0,18.87-1.75,27.79-5.26,8.92-3.51,16.51-8.38,22.76-14.64v-45.75h-57.64v-9.61h67.48Z"
       fill="#1d1d1b"
       stroke="#fff"
       stroke-miterlimit="10"
       id="path17" />
    <path
       d="M2228.95,654.51c12.35,6.79,21.96,16.24,28.82,28.36,6.86,12.12,10.29,25.96,10.29,41.52s-3.43,29.39-10.29,41.52c-6.86,12.12-16.47,21.58-28.82,28.36-12.35,6.79-26.46,10.18-42.32,10.18h-53.53v-160.12h53.53c15.86,0,29.97,3.4,42.32,10.18ZM2223.69,785.69c10.83-5.95,19.25-14.26,25.28-24.93,6.02-10.67,9.04-22.8,9.04-36.37s-3.05-25.69-9.15-36.37c-6.1-10.67-14.56-18.99-25.39-24.93-10.83-5.95-23.1-8.92-36.83-8.92h-43.46v140.45h43.46c13.88,0,26.23-2.97,37.06-8.92Z"
       fill="#1d1d1b"
       stroke="#fff"
       stroke-miterlimit="10"
       id="path18" />
    <path
       d="M2424.53,804.45l-18.07-40.26h-97.45l-18.07,40.26h-10.98l71.83-160.12h11.89l71.83,160.12h-10.98ZM2357.73,655.08l-44.61,99.27h89.21l-44.61-99.27Z"
       fill="#1d1d1b"
       stroke="#fff"
       stroke-miterlimit="10"
       id="path19" />
  </g>
</svg>
