<?xml version="1.0" encoding="UTF-8" standalone="no"?>
<svg
   id="Layer_2"
   viewBox="0 0 319.51 87.11"
   version="1.1"
   sodipodi:docname="b1a16e8d-93f6-4a88-bfa9-faf5ed8eb31c.svg"
   xmlns:inkscape="http://www.inkscape.org/namespaces/inkscape"
   xmlns:sodipodi="http://sodipodi.sourceforge.net/DTD/sodipodi-0.dtd"
   xmlns="http://www.w3.org/2000/svg"
   xmlns:svg="http://www.w3.org/2000/svg">
  <defs
     id="defs7" />
  <sodipodi:namedview
     id="namedview7"
     pagecolor="#ffffff"
     bordercolor="#000000"
     borderopacity="0.25"
     inkscape:showpageshadow="2"
     inkscape:pageopacity="0.0"
     inkscape:pagecheckerboard="0"
     inkscape:deskcolor="#d1d1d1" />
  <g
     id="Layer_1-2">
    <path
       d="M0,53.7c0-.6.4-.9.9-.9h15.6c.5,0,.9.3.9.9.3,4.3,3.3,6.5,9.1,6.5,5.3,0,7.1-2.1,7.1-4.3,0-7.8-27.9-3.2-27.9-21.5,0-10.1,9.4-17.2,24.5-17.2s23.4,6.9,24,16.5c0,.6-.3.9-.9.9h-14.8c-.5,0-.9-.3-1-.9-.4-3.6-2.9-5.8-7.4-5.8s-6.4,1.9-6.4,4.3c0,8.1,27.7,3.5,27.7,20.6,0,10.4-9.5,18.5-25.2,18.5C9.4,71.3.3,63.6,0,53.7Z"
       fill="#231f20"
       id="path1" />
    <path
       d="M107.7,48h-35.3v.6c0,7.6,3.4,10.9,8.6,10.9,4.6,0,7.6-2.6,9-6.4.1-.5.5-.7,1-.7h15.3c.6,0,.9.4.8,1-2.8,10.6-12.2,17.9-26.5,17.9s-25.8-8.3-25.8-23.6,11.4-30.5,30.4-30.5c17.7,0,27.3,13,23.5,30-.1.5-.5.8-1,.8ZM73.8,37.6h18c.4-5-2.2-8.8-7.7-8.8-5.2,0-8.6,3.3-10.3,8.8Z"
       fill="#231f20"
       id="path2" />
    <path
       d="M154,19.3c.1-.6.5-.8,1-.8h16.6c.6,0,.9.4.8,1l-8.1,34.5-7.3,32.3c-.1.6-.5.8-1,.8l-16.2-.1c-.6,0-.9-.4-.8-1l4.7-19.6c-3.5,2.8-7.9,4.6-13.1,4.6-11.5,0-18.9-8.7-18.9-21.6,0-14.1,8.7-31.9,26.6-31.9,6.8,0,11.7,2.5,14.6,6.9l1.1-5.1ZM137.5,59.4c8.9,0,12.3-13.5,12.3-20.4,0-6.5-2.8-9.9-7.8-9.9-9.3,0-12.2,13-12.2,19.6,0,6.1,2.4,10.7,7.7,10.7Z"
       fill="#231f20"
       id="path3" />
    <path
       d="M210.1,19.3c.1-.6.5-.8,1-.8h16.6c.6,0,.9.4.8,1l-6,24.3-5.8,25.4c-.1.6-.5.8-1,.8h-15.4c-.6,0-.9-.4-.8-1l1.2-4.8c-4.1,4-9.7,7-16.4,7-10.5,0-18-7.4-14.8-21l2.3-9.9,4.7-21c.1-.6.5-.8,1-.8h16.4c.6,0,.9.4.8,1l-4.7,18.7-2.4,11c-1.1,5.4.4,8.9,5,8.9,7.5,0,11.1-9.5,12.5-15.9l1-4.2,4-18.7Z"
       fill="#231f20"
       id="path4" />
    <path
       d="M279.1,48h-35.3v.6c0,7.6,3.4,10.9,8.6,10.9,4.6,0,7.6-2.6,9-6.4.1-.5.5-.7,1-.7h15.3c.6,0,.9.4.8,1-2.8,10.6-12.2,17.9-26.5,17.9s-25.8-8.3-25.8-23.6,11.4-30.5,30.4-30.5c17.7,0,27.3,13,23.5,30-.1.5-.5.8-1,.8ZM245.2,37.6h18c.4-5-2.2-8.8-7.7-8.8-5.2,0-8.6,3.3-10.3,8.8Z"
       fill="#231f20"
       id="path5" />
    <path
       d="M296.4,69.2c-.1.6-.5.8-1,.8h-16c-.6,0-.9-.4-.8-1l8.3-33.8,7.5-34.4c.1-.6.5-.8,1-.8h16c.6,0,.9.4.8,1l-8.4,34.2-7.4,34Z"
       fill="#231f20"
       id="path6" />
    <path
       d="M315.98,63.28c1.1.64,1.97,1.51,2.59,2.63s.94,2.37.94,3.76-.31,2.65-.94,3.78c-.62,1.13-1.49,2.01-2.59,2.65-1.1.64-2.35.95-3.74.95s-2.68-.32-3.78-.95c-1.1-.64-1.97-1.52-2.59-2.65-.62-1.13-.94-2.39-.94-3.78s.31-2.65.94-3.76,1.49-1.99,2.59-2.63c1.1-.64,2.36-.95,3.78-.95s2.64.32,3.74.95ZM316.43,73.95c1.07-1.1,1.6-2.53,1.6-4.28s-.53-3.18-1.6-4.28c-1.07-1.1-2.47-1.66-4.19-1.66s-3.15.55-4.19,1.66-1.57,2.53-1.57,4.28.52,3.18,1.57,4.28c1.04,1.1,2.44,1.66,4.19,1.66s3.13-.55,4.19-1.66ZM315.03,69.61c-.3.4-.71.68-1.24.85l2.02,2.99-2.27.04-1.73-2.88h-.61v2.88h-1.87v-7.74h3.46c.82,0,1.47.22,1.96.65s.74,1.02.74,1.76c0,.58-.15,1.06-.45,1.46ZM311.19,69.05h1.48c.26,0,.49-.07.67-.22.18-.14.27-.35.27-.61s-.09-.46-.27-.59c-.18-.13-.4-.2-.67-.2h-1.48v1.62Z"
       fill="#231f20"
       id="path7" />
  </g>
</svg>
